<svg preserveAspectRatio="none" width="100%" height="100%" overflow="visible" style="display: block;" viewBox="0 0 21 17" fill="none" xmlns="http://www.w3.org/2000/svg">
<g id="Frame" clip-path="url(#clip0_19_455)">
<path id="Vector" d="M19.776 3.648C18.304 3.936 17.072 4.608 16.08 5.664C15.12 6.688 14.64 7.84 14.64 9.12C14.928 8.896 15.424 8.784 16.128 8.784C17.216 8.784 18.144 9.184 18.912 9.984C19.68 10.784 20.064 11.744 20.064 12.864C20.064 14.016 19.648 14.96 18.816 15.696C18.016 16.432 16.992 16.8 15.744 16.8C14.08 16.8 12.768 16.032 11.808 14.496C11.072 13.376 10.704 11.968 10.704 10.272C10.704 8.128 11.408 6.032 12.816 3.984C14.224 1.936 15.888 0.608001 17.808 0L19.776 3.648ZM9.024 3.648C7.552 3.936 6.336 4.608 5.376 5.664C4.416 6.688 3.936 7.84 3.936 9.12C4.224 8.896 4.72 8.784 5.424 8.784C6.512 8.784 7.424 9.184 8.16 9.984C8.928 10.784 9.312 11.744 9.312 12.864C9.312 14.016 8.896 14.96 8.064 15.696C7.264 16.432 6.256 16.8 5.04 16.8C3.376 16.8 2.048 16.032 1.056 14.496C0.352 13.376 0 11.968 0 10.272C0 8.128 0.688 6.032 2.064 3.984C3.472 1.936 5.136 0.608001 7.056 0L9.024 3.648Z" fill="var(--fill-0, black)"/>
</g>
<defs>
<clipPath id="clip0_19_455">
<rect width="21" height="17" fill="white"/>
</clipPath>
</defs>
</svg>
