<svg preserveAspectRatio="none" width="100%" height="100%" overflow="visible" style="display: block;" viewBox="0 0 49 47.0098" fill="none" xmlns="http://www.w3.org/2000/svg">
<g id="Group 2575">
<g id="Vector 11">
<path d="M42.8824 20.3824H39.2647C38.1601 20.3824 37.2647 21.275 37.2647 22.3796V31.9118C37.2647 36.2353 32.3235 40.3529 29.4412 40.3529H23.3192C22.5331 40.3529 21.8215 40.8134 21.4979 41.5298L20.3181 44.1423C19.748 45.4046 20.6017 46.8396 21.9854 46.9023C24.7323 47.0269 28.9363 47.1171 32.1176 46.7353C37.2647 46.1176 44.8824 40.7647 44.8824 32.5294V22.3812C44.8824 21.2766 43.9869 20.3824 42.8824 20.3824Z" fill="var(--fill-0, #13A1D0)"/>
<path d="M42.8824 18.5294H39.2647C38.1601 18.5294 37.2647 17.634 37.2647 16.5294V14.1471C37.2647 13.0425 38.1601 12.1471 39.2647 12.1471H42.8824C43.9869 12.1471 44.8824 13.0425 44.8824 14.1471V16.5294C44.8824 17.634 43.9869 18.5294 42.8824 18.5294Z" fill="var(--fill-0, #13A1D0)"/>
<path d="M39.6324 7.61765H39.2206C38.1404 7.61765 37.2647 8.49333 37.2647 9.57353C37.2647 10.6537 38.1404 11.5294 39.2206 11.5294H39.6324C40.7126 11.5294 41.5882 10.6537 41.5882 9.57353C41.5882 8.49333 40.7126 7.61765 39.6324 7.61765Z" fill="var(--fill-0, #13A1D0)"/>
<path d="M47.25 11.5294H47.0441C46.0776 11.5294 45.2941 10.7459 45.2941 9.77941C45.2941 8.81291 46.0776 8.02941 47.0441 8.02941H47.25C48.2165 8.02941 49 8.81291 49 9.77941C49 10.7459 48.2165 11.5294 47.25 11.5294Z" fill="var(--fill-0, #13A1D0)"/>
<path d="M48.1765 1.44118V1.64706C48.1765 2.443 47.5312 3.08824 46.7353 3.08824C45.9394 3.08824 45.2941 2.443 45.2941 1.64706V1.44118C45.2941 0.645237 45.9394 0 46.7353 0C47.5312 0 48.1765 0.645238 48.1765 1.44118Z" fill="var(--fill-0, #13A1D0)"/>
<path d="M43.2353 3.70588C44.1449 3.70588 44.8824 4.4433 44.8824 5.35294C44.8824 6.26259 44.1449 7 43.2353 7C42.3256 7 41.5882 6.26259 41.5882 5.35294C41.5882 4.4433 42.3256 3.70588 43.2353 3.70588Z" fill="var(--fill-0, #13A1D0)"/>
</g>
<g id="Vector 10">
<path d="M33.9806 7.76876L31.6884 11.728C31.3189 12.3663 30.6305 12.7495 29.8932 12.7282C26.7484 12.6374 18.381 12.4317 16.8823 12.7647C15.0294 13.1765 8.64705 14.6176 7.82352 22.6471C7 30.6765 11.9412 33.7647 13.1765 34.5882C13.9309 35.0912 15.8372 35.6709 17.207 36.0461C18.1002 36.2907 18.7353 37.0948 18.7353 38.0209V41.8018C18.7353 43.0018 17.6892 43.9164 16.5174 43.6578C14.1712 43.14 10.452 42.044 7.82352 39.9412C3.70588 36.6471 0 31.2941 0 23.6765C0 16.0588 5.7647 5.14706 18.7353 4.94117C25.4895 4.83396 29.7874 4.83841 32.3555 4.8673C33.8497 4.8841 34.7293 6.47559 33.9806 7.76876Z" fill="var(--fill-0, #1EC7FF)"/>
<path d="M19.7971 21.1313L18.337 23.5137C17.5202 24.8463 18.4791 26.5588 20.0422 26.5588H26.8235C27.9281 26.5588 28.8235 27.4543 28.8235 28.5588V35.7922C28.8235 37.0744 30.0149 37.9914 31.1592 37.4128C32.9816 36.4914 35.2059 34.7444 35.2059 31.7059V22.1752C35.2059 21.0706 34.3104 20.1765 33.2059 20.1765H21.5023C20.8065 20.1765 20.1607 20.5381 19.7971 21.1313Z" fill="var(--fill-0, #1EC7FF)"/>
</g>
</g>
</svg>
