<svg preserveAspectRatio="none" width="100%" height="100%" overflow="visible" style="display: block;" viewBox="0 0 64 64" fill="none" xmlns="http://www.w3.org/2000/svg">
<g id="Frame">
<path id="Vector" d="M24 2.66667C25.4728 2.66667 26.6667 3.86059 26.6667 5.33333V9.33333C26.6667 10.8061 25.4728 12 24 12C22.5273 12 21.3333 10.8061 21.3333 9.33333V5.33333C21.3333 3.86059 22.5273 2.66667 24 2.66667Z" fill="var(--fill-0, #FFCA00)"/>
<path id="Vector_2" d="M8.78104 8.78104C9.82245 7.73965 11.5109 7.73965 12.5523 8.78104L15.3807 11.6095C16.4221 12.6509 16.4221 14.3393 15.3807 15.3807C14.3393 16.4221 12.6509 16.4221 11.6095 15.3807L8.78104 12.5523C7.73965 11.5109 7.73965 9.82245 8.78104 8.78104Z" fill="var(--fill-0, #FFCA00)"/>
<path id="Vector_3" d="M15.3807 36.5523C16.4221 35.5109 16.4221 33.8224 15.3807 32.7811C14.3393 31.7397 12.6509 31.7397 11.6095 32.7811L8.78104 35.6096C7.73965 36.6509 7.73965 38.3392 8.78104 39.3808C9.82245 40.4221 11.5109 40.4221 12.5523 39.3808L15.3807 36.5523Z" fill="var(--fill-0, #FFCA00)"/>
<path id="Vector_4" d="M39.3808 8.78104C40.4221 9.82245 40.4221 11.5109 39.3808 12.5523L36.5523 15.3807C35.5109 16.4221 33.8224 16.4221 32.7811 15.3807C31.7397 14.3393 31.7397 12.6509 32.7811 11.6095L35.6096 8.78104C36.6509 7.73965 38.3392 7.73965 39.3808 8.78104Z" fill="var(--fill-0, #FFCA00)"/>
<path id="Vector_5" d="M5.33333 21.3333C3.86059 21.3333 2.66667 22.5273 2.66667 24C2.66667 25.4728 3.86059 26.6667 5.33333 26.6667H9.33333C10.8061 26.6667 12 25.4728 12 24C12 22.5273 10.8061 21.3333 9.33333 21.3333H5.33333Z" fill="var(--fill-0, #FFCA00)"/>
<path id="Vector_6" d="M25.8855 19.9453C25.3372 19.7762 24.7651 19.5999 24.2777 19.4972C23.793 19.3952 22.9124 19.2492 21.9715 19.5944C20.8685 19.9992 19.9992 20.8685 19.5944 21.9715C19.2492 22.9124 19.3952 23.793 19.4972 24.2777C19.5998 24.7651 19.7762 25.3372 19.9452 25.8855L29.2243 56.0083C29.4341 56.6907 29.6413 57.3632 29.8563 57.8904C30.0493 58.3632 30.4691 59.3235 31.4309 59.9363C32.5072 60.6221 33.8461 60.7531 35.0352 60.2891C36.0973 59.8744 36.6955 59.0139 36.9765 58.5872C37.2896 58.1117 37.6232 57.4923 37.9616 56.8635L44.5773 44.5773L56.8635 37.9616C57.4923 37.6232 58.1117 37.2899 58.5872 36.9765C59.0136 36.6957 59.8741 36.0976 60.2888 35.0352C60.7531 33.8464 60.6221 32.5075 59.9363 31.4309C59.3232 30.4693 58.3632 30.0493 57.8904 29.8565C57.3632 29.6413 56.6907 29.4344 56.0083 29.2243L25.8855 19.9453Z" fill="var(--fill-0, #FFCA00)"/>
</g>
</svg>
