<svg preserveAspectRatio="none" width="100%" height="100%" overflow="visible" style="display: block;" viewBox="0 0 56 56" fill="none" xmlns="http://www.w3.org/2000/svg">
<g id="Frame">
<path id="Vector" d="M13.3166 8.64992C14.2278 7.73869 14.2278 6.26131 13.3166 5.35008C12.4054 4.43886 10.928 4.43886 10.0167 5.35008L3.01674 12.3501C2.10553 13.2613 2.10553 14.7387 3.01674 15.6499C3.92798 16.5611 5.40535 16.5611 6.31659 15.6499L13.3166 8.64992Z" fill="var(--fill-0, #FF7DA5)"/>
<path id="Vector_2" d="M45.9832 5.35008C45.0721 4.43886 43.5946 4.43886 42.6834 5.35008C41.7723 6.26131 41.7723 7.73869 42.6834 8.64992L49.6834 15.6499C50.5946 16.5611 52.0721 16.5611 52.9832 15.6499C53.8944 14.7387 53.8944 13.2613 52.9832 12.3501L45.9832 5.35008Z" fill="var(--fill-0, #FF7DA5)"/>
<path id="Vector_3" fill-rule="evenodd" clip-rule="evenodd" d="M28 51.3333C32.7861 51.3333 37.4038 49.6995 41.1075 46.7406L45.0168 50.6499C45.9279 51.5611 47.4054 51.5611 48.3166 50.6499C49.2277 49.7387 49.2277 48.2613 48.3166 47.3501L44.4073 43.4408C47.3662 39.7371 49 35.1195 49 30.3333C49 24.7639 46.7875 19.4224 42.8493 15.4841C38.9109 11.5458 33.5694 9.33333 28 9.33333C22.4304 9.33333 17.089 11.5458 13.1508 15.4841C9.21249 19.4224 7 24.7639 7 30.3333C7 35.1195 8.63387 39.7371 11.5927 43.4408L7.68341 47.3501C6.7722 48.2613 6.7722 49.7387 7.68341 50.6499C8.59465 51.5611 10.072 51.5611 10.9833 50.6499L14.8926 46.7406C18.5961 49.6995 23.2138 51.3333 28 51.3333ZM30.3333 21C30.3333 19.7113 29.2887 18.6667 28 18.6667C26.7113 18.6667 25.6667 19.7113 25.6667 21V30.3333C25.6667 30.9521 25.9126 31.5457 26.3501 31.9832L31.0168 36.6499C31.9279 37.5611 33.4054 37.5611 34.3166 36.6499C35.2277 35.7387 35.2277 34.2613 34.3166 33.3501L30.3333 29.3669V21Z" fill="var(--fill-0, #FF7DA5)"/>
</g>
</svg>
