<svg preserveAspectRatio="none" width="100%" height="100%" overflow="visible" style="display: block;" viewBox="0 0 56 56" fill="none" xmlns="http://www.w3.org/2000/svg">
<g id="Frame">
<path id="Vector" fill-rule="evenodd" clip-rule="evenodd" d="M13.9088 9.33333C13.9388 9.33336 13.9693 9.33336 14.0002 9.33336C15.2888 9.33336 16.3335 10.378 16.3335 11.6667C16.3335 12.9553 15.2888 14 14.0002 14C13.3343 14 13.1324 14.0018 12.9751 14.0139C10.8559 14.1779 9.11528 15.7532 8.74125 17.8455C8.71346 18.0009 8.69167 18.2015 8.6254 18.8641L8.01348 24.9832C12.4948 22.3004 18.3887 22.8894 22.2498 26.7505C23.429 27.9295 24.3031 29.2985 24.8717 30.7589C26.9164 30.1915 29.0841 30.1915 31.1285 30.7589C31.6974 29.2985 32.5715 27.9298 33.7505 26.7505C37.6117 22.8894 43.5055 22.3004 47.9869 24.9832L47.3748 18.8641C47.3088 18.2016 47.2869 18.0009 47.2591 17.8455C46.8851 15.7532 45.1444 14.1779 43.0253 14.0139C42.868 14.0018 42.6662 14 42.0002 14C40.7115 14 39.6669 12.9553 39.6669 11.6667C39.6669 10.378 40.7115 9.33336 42.0002 9.33336L42.0915 9.33333C42.6263 9.33326 43.0239 9.33319 43.3853 9.36117C47.6236 9.68912 51.1049 12.8396 51.853 17.0243C51.9167 17.3813 51.9563 17.7768 52.0093 18.309L53.4583 32.7976C53.5955 33.5153 53.665 34.2433 53.6669 34.9715C53.6671 34.993 53.6671 35.0142 53.6669 35.0355C53.6578 38.0093 52.5189 40.9806 50.2497 43.2495C45.6937 47.8058 38.3068 47.8058 33.7505 43.2495C31.5744 41.0734 30.4376 38.2515 30.3403 35.4006C28.8297 34.8665 27.1705 34.8665 25.6599 35.4004C25.5626 38.2513 24.426 41.0734 22.2498 43.2495C17.6936 47.8058 10.3067 47.8058 5.75059 43.2495C3.48157 40.9806 2.34255 38.0095 2.33357 35.0355C2.33326 35.0142 2.33326 34.993 2.33354 34.9715C2.33532 34.2433 2.40485 33.5153 2.54212 32.7976L3.9819 18.3998C3.98496 18.369 3.98799 18.3387 3.99098 18.3089C4.04411 17.7767 4.08359 17.3813 4.14741 17.0243C4.89545 12.8396 8.37671 9.68912 12.615 9.36117C12.9766 9.33319 13.374 9.33326 13.9088 9.33333Z" fill="var(--fill-0, #9747FF)"/>
</g>
</svg>
