<svg preserveAspectRatio="none" width="100%" height="100%" overflow="visible" style="display: block;" viewBox="0 0 56 56" fill="none" xmlns="http://www.w3.org/2000/svg">
<g id="Frame">
<path id="Vector" d="M49.283 6.71692C52.0168 9.45058 52.0168 13.8827 49.283 16.6164C46.5493 19.3501 42.1174 19.3501 39.3836 16.6164C36.6499 13.8827 36.6499 9.45058 39.3836 6.71692C42.1174 3.98326 46.5493 3.98326 49.283 6.71692Z" fill="var(--fill-0, #1EC7FF)"/>
<path id="Vector_2" fill-rule="evenodd" clip-rule="evenodd" d="M49 25.2128C49 24.259 49 23.782 48.8451 23.5123C48.6897 23.2413 48.5317 23.1076 48.2386 22.999C47.947 22.891 47.3893 22.9845 46.2742 23.1717C42.6797 23.7748 38.8572 22.6898 36.0838 19.9162C33.3102 17.1427 32.2252 13.3202 32.8284 9.7258C33.0155 8.61058 33.1091 8.05299 33.001 7.76132C32.8925 7.46837 32.7588 7.31038 32.4877 7.15486C32.218 7 31.741 7 30.7872 7H18.1036C16.2254 6.99998 14.6752 6.99995 13.4124 7.10311C12.1009 7.21028 10.8952 7.44025 9.76276 8.01729C8.00658 8.9121 6.57876 10.3399 5.68395 12.0961C5.10692 13.2285 4.87695 14.4342 4.7698 15.7458C4.66662 17.0085 4.66664 18.5587 4.66667 20.4369V37.8964C4.66664 39.7747 4.66662 41.3247 4.7698 42.5875C4.87695 43.8991 5.10692 45.1047 5.68395 46.2373C6.57876 47.9934 8.00658 49.4212 9.76276 50.316C10.8952 50.893 12.1009 51.1231 13.4124 51.2302C14.6752 51.3333 16.2253 51.3333 18.1036 51.3333H35.563C37.4414 51.3333 38.9914 51.3333 40.2542 51.2302C41.5658 51.1231 42.7714 50.893 43.904 50.316C45.6601 49.4212 47.0878 47.9934 47.9827 46.2373C48.5597 45.1047 48.7898 43.8991 48.8969 42.5875C49 41.3247 49 39.7747 49 37.8964V25.2128ZM14 30.3333C14 29.0446 15.0447 28 16.3333 28H35C36.2887 28 37.3333 29.0446 37.3333 30.3333C37.3333 31.622 36.2887 32.6667 35 32.6667H16.3333C15.0447 32.6667 14 31.622 14 30.3333ZM14 39.6667C14 38.378 15.0447 37.3333 16.3333 37.3333H30.3333C31.622 37.3333 32.6667 38.378 32.6667 39.6667C32.6667 40.9554 31.622 42 30.3333 42H16.3333C15.0447 42 14 40.9554 14 39.6667Z" fill="var(--fill-0, #1EC7FF)"/>
</g>
</svg>
