<svg preserveAspectRatio="none" width="100%" height="100%" overflow="visible" style="display: block;" viewBox="0 0 35 49" fill="none" xmlns="http://www.w3.org/2000/svg">
<g id="Frame" clip-path="url(#clip0_10_162)">
<path id="Vector" d="M24.276 18.904C27.3586 19.448 29.8293 20.9893 31.688 23.528C33.5466 26.0213 34.476 29.0813 34.476 32.708C34.476 37.332 32.8893 41.0946 29.716 43.996C26.588 46.8973 22.4626 48.348 17.34 48.348C13.0786 48.348 9.384 47.192 6.256 44.88C3.17334 42.5226 1.088 39.3493 0 35.36L9.52001 32.028C9.92801 33.932 10.812 35.428 12.172 36.516C13.532 37.604 15.2093 38.148 17.204 38.148C19.3346 38.148 21.0346 37.6266 22.304 36.584C23.6186 35.496 24.276 34.068 24.276 32.3C24.276 30.0333 23.3013 28.2426 21.352 26.928C19.448 25.568 16.8413 24.888 13.532 24.888L11.832 17.816L22.44 9.996H0.612V0H34.476V11.628L24.276 18.904Z" fill="var(--fill-0, white)"/>
</g>
<defs>
<clipPath id="clip0_10_162">
<rect width="35" height="49" fill="white"/>
</clipPath>
</defs>
</svg>
