<svg preserveAspectRatio="none" width="100%" height="100%" overflow="visible" style="display: block;" viewBox="0 0 218 50" fill="none" xmlns="http://www.w3.org/2000/svg">
<g id="Frame" clip-path="url(#clip0_10_147)">
<path id="Vector" d="M30.668 14.552C28.5373 11.6506 25.2733 10.2 20.876 10.2C17.884 10.2 15.4133 11.356 13.464 13.668C11.56 15.9346 10.472 18.972 10.2 22.78C11.2426 20.6946 12.784 19.0626 14.824 17.884C16.9093 16.7053 19.1986 16.116 21.692 16.116C25.9986 16.116 29.648 17.748 32.64 21.012C35.632 24.2306 37.128 28.1746 37.128 32.844C37.128 37.74 35.428 41.82 32.028 45.084C28.628 48.348 24.344 49.98 19.176 49.98C15.5946 49.98 12.3533 49.1866 9.452 47.6C6.596 46.0133 4.39734 43.8373 2.856 41.072C0.952 37.536 0 32.98 0 27.404C0 19.1986 1.972 12.58 5.916 7.548C9.86001 2.516 15.0506 0 21.488 0C24.6613 0 27.5626 0.634667 30.192 1.904C32.8666 3.17333 34.952 4.91867 36.448 7.14L30.668 14.552ZM10.88 32.708C10.88 34.612 11.696 36.2666 13.328 37.672C15.0053 39.0773 17 39.78 19.312 39.78C21.488 39.78 23.3013 39.1453 24.752 37.876C26.2026 36.5613 26.928 34.952 26.928 33.048C26.928 31.0533 26.18 29.444 24.684 28.22C23.188 26.9506 21.284 26.316 18.972 26.316C16.66 26.316 14.7333 26.928 13.192 28.152C11.6506 29.3306 10.88 30.8493 10.88 32.708ZM70.032 26.792C70.032 30.5546 70.9613 33.66 72.82 36.108C74.6787 38.556 76.968 39.78 79.688 39.78C82.408 39.78 84.6973 38.556 86.556 36.108C88.4147 33.66 89.344 30.5546 89.344 26.792V23.188C89.344 19.4253 88.4147 16.32 86.556 13.872C84.6973 11.424 82.408 10.2 79.688 10.2C76.968 10.2 74.6787 11.424 72.82 13.872C70.9613 16.32 70.032 19.4253 70.032 23.188V26.792ZM59.832 26.792V23.188C59.832 16.4786 61.7587 10.948 65.612 6.596C69.4653 2.19867 74.1573 0 79.688 0C85.2187 0 89.9107 2.19867 93.764 6.596C97.6173 10.948 99.544 16.4786 99.544 23.188V26.792C99.544 33.5013 97.6173 39.0546 93.764 43.452C89.9107 47.804 85.2187 49.98 79.688 49.98C74.1573 49.98 69.4653 47.804 65.612 43.452C61.7587 39.0546 59.832 33.5013 59.832 26.792ZM114.126 26.792C114.126 30.5546 115.055 33.66 116.914 36.108C118.772 38.556 121.062 39.78 123.782 39.78C126.502 39.78 128.791 38.556 130.65 36.108C132.508 33.66 133.438 30.5546 133.438 26.792V23.188C133.438 19.4253 132.508 16.32 130.65 13.872C128.791 11.424 126.502 10.2 123.782 10.2C121.062 10.2 118.772 11.424 116.914 13.872C115.055 16.32 114.126 19.4253 114.126 23.188V26.792ZM103.926 26.792V23.188C103.926 16.4786 105.852 10.948 109.706 6.596C113.559 2.19867 118.251 0 123.782 0C129.312 0 134.004 2.19867 137.858 6.596C141.711 10.948 143.638 16.4786 143.638 23.188V26.792C143.638 33.5013 141.711 39.0546 137.858 43.452C134.004 47.804 129.312 49.98 123.782 49.98C118.251 49.98 113.559 47.804 109.706 43.452C105.852 39.0546 103.926 33.5013 103.926 26.792ZM158.22 26.792C158.22 30.5546 159.149 33.66 161.008 36.108C162.866 38.556 165.156 39.78 167.876 39.78C170.596 39.78 172.885 38.556 174.744 36.108C176.602 33.66 177.532 30.5546 177.532 26.792V23.188C177.532 19.4253 176.602 16.32 174.744 13.872C172.885 11.424 170.596 10.2 167.876 10.2C165.156 10.2 162.866 11.424 161.008 13.872C159.149 16.32 158.22 19.4253 158.22 23.188V26.792ZM148.02 26.792V23.188C148.02 16.4786 149.946 10.948 153.8 6.596C157.653 2.19867 162.345 0 167.876 0C173.406 0 178.098 2.19867 181.952 6.596C185.805 10.948 187.732 16.4786 187.732 23.188V26.792C187.732 33.5013 185.805 39.0546 181.952 43.452C178.098 47.804 173.406 49.98 167.876 49.98C162.345 49.98 157.653 47.804 153.8 43.452C149.946 39.0546 148.02 33.5013 148.02 26.792ZM200.273 17.612H209.181V26.18H217.817V35.088H209.181V43.724H200.273V35.088H191.705V26.18H200.273V17.612Z" fill="var(--fill-0, white)"/>
</g>
<defs>
<clipPath id="clip0_10_147">
<rect width="218" height="50" fill="white"/>
</clipPath>
</defs>
</svg>
