<svg preserveAspectRatio="none" width="100%" height="100%" overflow="visible" style="display: block;" viewBox="0 0 476.453 942.526" fill="none" xmlns="http://www.w3.org/2000/svg">
<path id="Vector 1" d="M145.6 22.5425C145.6 22.5425 235.099 78.5425 238.099 140.543C241.099 202.543 349.1 228.043 383.6 180.543C418.099 133.043 403.6 0.0423856 340.1 22.5424C276.599 45.0424 331.599 207.042 324.6 287.542C317.6 368.042 464.1 483.042 464.1 483.042M19.0995 640.542C19.0995 640.542 70.5995 806.542 127.6 811.042C184.6 815.542 213.1 725.542 145.6 725.542C78.0995 725.542 71.0995 738.042 52.0995 787.542C33.0995 837.042 213.1 924.542 213.1 924.542" stroke="var(--stroke-0, #FFF7D7)" stroke-width="40"/>
</svg>
