<svg preserveAspectRatio="none" width="100%" height="100%" overflow="visible" style="display: block;" viewBox="0 0 181.15 46.5" fill="none" xmlns="http://www.w3.org/2000/svg">
<path id="Vector 20" d="M0 24.5C0 24.5 6 24.5 15 24.5C24 24.5 18.5 2.5 26.5 2.5C34.5 2.5 25.5 44 34.5 44C43.5 44 39 2.5 48 2.5C57 2.5 54 44 64 44C74 44 66.5 2.5 80 2.5C93.5 2.5 84.5 44 96 44C107.5 44 95 2.5 110 2.5C125 2.5 113 44 124.5 44C136 44 127 2.5 138.5 2.5C150 2.5 145 44 149.5 44C154 44 159 24.5 163.5 24.5C164.875 24.5 166.67 24.5 168.5 24.5M168.5 24.5L166.631 30.4808C166.43 31.1244 167.166 31.6523 167.711 31.2558L177 24.5L167.331 16.9326C166.784 16.5051 166.016 17.0472 166.235 17.7052L168.5 24.5ZM177 24.5C177 24.5 172.66 24.5 168.5 24.5" stroke="var(--stroke-0, #B47AFF)" stroke-width="5"/>
</svg>
