<svg preserveAspectRatio="none" width="100%" height="100%" overflow="visible" style="display: block;" viewBox="0 0 64 64" fill="none" xmlns="http://www.w3.org/2000/svg">
<g id="Frame">
<path id="Vector" fill-rule="evenodd" clip-rule="evenodd" d="M31.6333 5.33347H32.3672C34.4883 5.33232 36.0632 5.33147 37.4277 5.69704C41.1085 6.68336 43.9837 9.55853 44.9701 13.2395C45.1899 14.0594 45.2771 14.9553 45.3117 16H50.236C51.6419 15.9999 52.8547 15.9999 53.8533 16.0815C54.9077 16.1677 55.9563 16.3578 56.9653 16.8719C58.4707 17.6389 59.6944 18.8628 60.4613 20.3681C60.9755 21.3771 61.1656 22.4257 61.2517 23.4799C61.3333 24.4788 61.3333 25.6915 61.3333 27.0971V47.5696C61.3333 48.9752 61.3333 50.188 61.2517 51.1867C61.1656 52.2411 60.9755 53.2896 60.4613 54.2987C59.6944 55.804 58.4707 57.0277 56.9653 57.7947C55.9563 58.3088 54.9077 58.4989 53.8533 58.5851C52.8547 58.6667 51.6421 58.6667 50.2365 58.6667H13.7639C12.3584 58.6667 11.1454 58.6667 10.1466 58.5851C9.09235 58.4989 8.04376 58.3088 7.03475 57.7947C5.52947 57.0277 4.3056 55.804 3.53861 54.2987C3.02451 53.2896 2.83432 52.2411 2.74819 51.1867C2.66659 50.188 2.66663 48.9752 2.66667 47.5696V27.0973C2.66663 25.6916 2.66659 24.4787 2.74819 23.4799C2.83432 22.4257 3.02451 21.3771 3.53861 20.3681C4.3056 18.8628 5.52947 17.6389 7.03475 16.8719C8.04376 16.3578 9.09235 16.1677 10.1466 16.0815C11.1454 15.9999 12.3582 15.9999 13.7639 16H18.6889C18.7233 14.9553 18.8107 14.0594 19.0304 13.2395C20.0167 9.55853 22.8919 6.68336 26.5729 5.69704C27.9373 5.33147 29.5123 5.33232 31.6333 5.33347ZM24.0266 16C24.0511 15.3133 24.0971 14.9366 24.182 14.6199C24.6751 12.7794 26.1127 11.3418 27.9533 10.8486C28.5459 10.6898 29.3485 10.6669 32.0003 10.6669C34.652 10.6669 35.4547 10.6898 36.0472 10.8486C37.8877 11.3418 39.3253 12.7794 39.8184 14.6199C39.9035 14.9366 39.9493 15.3133 39.9739 16H24.0266ZM21.3333 24C22.8061 24 24 25.1939 24 26.6667V48C24 49.4728 22.8061 50.6667 21.3333 50.6667C19.8606 50.6667 18.6667 49.4728 18.6667 48V26.6667C18.6667 25.1939 19.8606 24 21.3333 24ZM45.3333 26.6667C45.3333 25.1939 44.1395 24 42.6667 24C41.1939 24 40 25.1939 40 26.6667V48C40 49.4728 41.1939 50.6667 42.6667 50.6667C44.1395 50.6667 45.3333 49.4728 45.3333 48V26.6667Z" fill="var(--fill-0, #FF7DA5)"/>
</g>
</svg>
