<svg preserveAspectRatio="none" width="100%" height="100%" overflow="visible" style="display: block;" viewBox="0 0 56 56" fill="none" xmlns="http://www.w3.org/2000/svg">
<g id="Frame">
<path id="Vector" fill-rule="evenodd" clip-rule="evenodd" d="M35.563 2.33333H20.437C18.5588 2.33331 17.0085 2.33328 15.7458 2.43647C14.4342 2.54361 13.2286 2.77359 12.0961 3.35062C10.3399 4.24543 8.9121 5.67324 8.01729 7.42943C7.44025 8.56189 7.21028 9.76752 7.10313 11.0791C6.99995 12.3418 6.99998 13.892 7 15.7703V40.2297C6.99998 42.108 6.99995 43.6581 7.10313 44.9209C7.21028 46.2324 7.44025 47.4381 8.01729 48.5707C8.9121 50.3267 10.3399 51.7545 12.0961 52.6493C13.2286 53.2264 14.4342 53.4564 15.7458 53.5635C17.0085 53.6667 18.5587 53.6667 20.4369 53.6667H27.1444C28.798 53.6667 29.6247 53.6667 29.9327 53.4408C30.2461 53.2112 30.3676 52.997 30.4043 52.6101C30.4404 52.23 29.9493 51.4073 28.9672 49.7616C27.612 47.491 26.8333 44.8364 26.8333 42C26.8333 33.6236 33.6236 26.8333 42 26.8333C43.4371 26.8333 44.8275 27.0333 46.1449 27.4066C47.2712 27.7258 47.8343 27.8857 48.1535 27.7947C48.4645 27.7058 48.6551 27.5618 48.8255 27.2865C49 27.0044 49 26.491 49 25.4639V15.7703C49 13.892 49 12.3419 48.8969 11.0791C48.7898 9.76752 48.5597 8.56189 47.9827 7.42943C47.0878 5.67324 45.6601 4.24543 43.904 3.35062C42.7714 2.77359 41.5658 2.54361 40.2542 2.43647C38.9914 2.33328 37.4414 2.33331 35.563 2.33333ZM16.3333 11.6667C15.0447 11.6667 14 12.7113 14 14C14 15.2887 15.0447 16.3333 16.3333 16.3333H37.3333C38.622 16.3333 39.6667 15.2887 39.6667 14C39.6667 12.7113 38.622 11.6667 37.3333 11.6667H16.3333ZM14 23.3333C14 22.0447 15.0447 21 16.3333 21H30.3333C31.622 21 32.6667 22.0447 32.6667 23.3333C32.6667 24.622 31.622 25.6667 30.3333 25.6667H16.3333C15.0447 25.6667 14 24.622 14 23.3333ZM14 32.6667C14 31.378 15.0447 30.3333 16.3333 30.3333H21C22.2887 30.3333 23.3333 31.378 23.3333 32.6667C23.3333 33.9554 22.2887 35 21 35H16.3333C15.0447 35 14 33.9554 14 32.6667Z" fill="var(--fill-0, #FFCA00)"/>
<path id="Vector_2" fill-rule="evenodd" clip-rule="evenodd" d="M31.5 42C31.5 36.201 36.201 31.5 42 31.5C47.799 31.5 52.5 36.201 52.5 42C52.5 44.0545 51.9099 45.9713 50.89 47.59L52.9832 49.6834C53.8944 50.5946 53.8944 52.0721 52.9832 52.9832C52.0721 53.8944 50.5946 53.8944 49.6834 52.9832L47.59 50.89C45.9713 51.9099 44.0545 52.5 42 52.5C36.201 52.5 31.5 47.799 31.5 42ZM42 36.1667C38.7784 36.1667 36.1667 38.7784 36.1667 42C36.1667 45.2216 38.7784 47.8333 42 47.8333C45.2216 47.8333 47.8333 45.2216 47.8333 42C47.8333 38.7784 45.2216 36.1667 42 36.1667Z" fill="var(--fill-0, #FFCA00)"/>
</g>
</svg>
