<svg preserveAspectRatio="none" width="100%" height="100%" overflow="visible" style="display: block;" viewBox="0 0 56 56" fill="none" xmlns="http://www.w3.org/2000/svg">
<g id="Frame" clip-path="url(#clip0_13_211)">
<path id="Vector" d="M38.5 4.66667C32.701 4.66667 28 9.36768 28 15.1667C28 20.9657 32.701 25.6667 38.5 25.6667C44.299 25.6667 49 20.9657 49 15.1667C49 9.36768 44.299 4.66667 38.5 4.66667Z" fill="var(--fill-0, #3FDB6C)"/>
<path id="Vector_2" d="M28.0742 4.15161C25.1545 6.91598 23.3333 10.8286 23.3333 15.1667C23.3333 17.9599 24.0884 20.5768 25.4056 22.8243C24.3854 23.1547 23.2969 23.3333 22.1667 23.3333C16.3677 23.3333 11.6667 18.6323 11.6667 12.8333C11.6667 7.03435 16.3677 2.33333 22.1667 2.33333C24.3572 2.33333 26.3912 3.00417 28.0742 4.15161Z" fill="var(--fill-0, #3FDB6C)"/>
<path id="Vector_3" d="M41.3208 37.0844C41.3208 38.9307 40.0995 40.4922 38.416 41.0142L39.4984 40.964C40.6814 40.964 41.8318 40.5921 42.777 39.9009L49.3778 35.0854C51.0251 33.884 53.3309 34.0436 54.7871 35.4601C56.4046 37.0335 56.4046 39.5822 54.7871 41.1528L49.1237 46.6622C47.5991 48.1451 45.6538 49.1577 43.5393 49.5696L35.5343 51.1271C33.947 51.4353 32.3104 51.3982 30.7396 51.0153L23.4995 49.256C22.6334 49.0434 21.7455 48.937 20.8521 48.937C19.9036 48.937 19.4293 48.937 19.0488 48.8012C18.3898 48.566 17.8711 48.0473 17.6358 47.3884C17.5 47.0078 17.5 46.5334 17.5 45.5852V37.5837C17.5 36.9168 17.5 36.5834 17.5856 36.2761C17.6615 36.0038 17.7862 35.7476 17.9536 35.5199C18.1426 35.263 18.4051 35.0572 18.9299 34.6458L21.6963 32.4767C21.6963 32.4767 26.2808 30.3333 28.8134 30.3333C29.8625 30.3333 30.9062 30.461 31.9251 30.7137L38.1871 32.2702C40.0286 32.7269 41.3208 34.373 41.3208 36.2612V37.0844Z" fill="var(--fill-0, #3FDB6C)"/>
<path id="Vector_4" fill-rule="evenodd" clip-rule="evenodd" d="M8.10493 30.3333C8.12548 30.3333 8.14606 30.3333 8.16667 30.3333C8.18729 30.3333 8.20787 30.3333 8.22845 30.3333C8.71855 30.3333 9.19602 30.3331 9.6022 30.3609C10.0464 30.3912 10.5731 30.4624 11.1192 30.6885C12.2627 31.1621 13.1711 32.0707 13.6448 33.2141C13.871 33.7603 13.9421 34.2869 13.9724 34.7312C14.0001 35.1372 14.0001 35.6148 14 36.1048C14 36.1254 14 36.1461 14 36.1667L14 47.8952C14.0001 48.3852 14.0001 48.8626 13.9724 49.2688C13.9421 49.7131 13.871 50.2397 13.6448 50.7859C13.1711 51.9293 12.2627 52.8379 11.1192 53.3113C10.5731 53.5376 10.0464 53.6088 9.6022 53.6391C9.19602 53.6667 8.71857 53.6667 8.22845 53.6667H8.10488C7.61479 53.6667 7.13734 53.6667 6.73115 53.6391C6.28693 53.6088 5.76025 53.5376 5.21416 53.3113C4.07069 52.8379 3.1622 51.9293 2.68856 50.7859C2.46237 50.2397 2.39127 49.7131 2.36096 49.2688C2.33324 48.8626 2.33329 48.3852 2.33333 47.8952V36.1667C2.33333 36.1461 2.33333 36.1254 2.33333 36.1048C2.33329 35.6148 2.33324 35.1372 2.36096 34.7312C2.39127 34.2869 2.46237 33.7603 2.68856 33.2141C3.1622 32.0707 4.07069 31.1621 5.21416 30.6885C5.76025 30.4624 6.28696 30.3912 6.73115 30.3609C7.13734 30.3331 7.61481 30.3333 8.10493 30.3333Z" fill="var(--fill-0, #3FDB6C)"/>
</g>
<defs>
<clipPath id="clip0_13_211">
<rect width="56" height="56" fill="white"/>
</clipPath>
</defs>
</svg>
