<svg preserveAspectRatio="none" width="100%" height="100%" overflow="visible" style="display: block;" viewBox="0 0 278 177" fill="none" xmlns="http://www.w3.org/2000/svg">
<g id="Frame" clip-path="url(#clip0_17_392)">
<path id="Vector" d="M36 94.56C36 107.84 39.28 118.8 45.84 127.44C52.4 136.08 60.48 140.4 70.08 140.4C79.68 140.4 87.76 136.08 94.32 127.44C100.88 118.8 104.16 107.84 104.16 94.56V81.84C104.16 68.56 100.88 57.6 94.32 48.96C87.76 40.32 79.68 36 70.08 36C60.48 36 52.4 40.32 45.84 48.96C39.28 57.6 36 68.56 36 81.84V94.56ZM0 94.56V81.84C0 58.16 6.8 38.64 20.4 23.28C34 7.76 50.56 0 70.08 0C89.6 0 106.16 7.76 119.76 23.28C133.36 38.64 140.16 58.16 140.16 81.84V94.56C140.16 118.24 133.36 137.84 119.76 153.36C106.16 168.72 89.6 176.4 70.08 176.4C50.56 176.4 34 168.72 20.4 153.36C6.8 137.84 0 118.24 0 94.56ZM241.305 70.8C252.185 72.72 260.905 78.16 267.465 87.12C274.025 95.92 277.305 106.72 277.305 119.52C277.305 135.84 271.705 149.12 260.505 159.36C249.465 169.6 234.905 174.72 216.825 174.72C201.785 174.72 188.745 170.64 177.705 162.48C166.825 154.16 159.465 142.96 155.625 128.88L189.225 117.12C190.665 123.84 193.785 129.12 198.585 132.96C203.385 136.8 209.305 138.72 216.345 138.72C223.865 138.72 229.865 136.88 234.345 133.2C238.985 129.36 241.305 124.32 241.305 118.08C241.305 110.08 237.865 103.76 230.985 99.12C224.265 94.32 215.065 91.92 203.385 91.92L197.385 66.96L234.825 39.36H157.785V4.07999H277.305V45.12L241.305 70.8Z" fill="var(--fill-0, #FF7DA5)"/>
</g>
<defs>
<clipPath id="clip0_17_392">
<rect width="278" height="177" fill="white"/>
</clipPath>
</defs>
</svg>
