<svg preserveAspectRatio="none" width="100%" height="100%" overflow="visible" style="display: block;" viewBox="0 0 248 177" fill="none" xmlns="http://www.w3.org/2000/svg">
<g id="Frame" clip-path="url(#clip0_17_398)">
<path id="Vector" d="M36 94.56C36 107.84 39.28 118.8 45.84 127.44C52.4 136.08 60.48 140.4 70.08 140.4C79.68 140.4 87.76 136.08 94.32 127.44C100.88 118.8 104.16 107.84 104.16 94.56V81.84C104.16 68.56 100.88 57.6 94.32 48.96C87.76 40.32 79.68 36 70.08 36C60.48 36 52.4 40.32 45.84 48.96C39.28 57.6 36 68.56 36 81.84V94.56ZM0 94.56V81.84C0 58.16 6.8 38.64 20.4 23.28C34 7.76 50.56 0 70.08 0C89.6 0 106.16 7.76 119.76 23.28C133.36 38.64 140.16 58.16 140.16 81.84V94.56C140.16 118.24 133.36 137.84 119.76 153.36C106.16 168.72 89.6 176.4 70.08 176.4C50.56 176.4 34 168.72 20.4 153.36C6.8 137.84 0 118.24 0 94.56ZM247.785 4.07999V172.08H211.785V44.88L174.105 71.28L154.185 42L209.625 4.07999H247.785Z" fill="var(--fill-0, #9747FF)"/>
</g>
<defs>
<clipPath id="clip0_17_398">
<rect width="248" height="177" fill="white"/>
</clipPath>
</defs>
</svg>
