<svg preserveAspectRatio="none" width="100%" height="100%" overflow="visible" style="display: block;" viewBox="0 0 20 20" fill="none" xmlns="http://www.w3.org/2000/svg">
<g id="Frame">
<path id="Vector" d="M10.538 1.47972C10.1977 1.31747 9.80233 1.31747 9.46208 1.47972C9.16783 1.61998 9.00567 1.86352 8.92392 1.99712C8.83933 2.13523 8.7525 2.31118 8.66792 2.48266L6.87147 6.12207L2.85309 6.70941C2.66393 6.73702 2.46984 6.76534 2.31242 6.8032C2.16012 6.83983 1.87853 6.91903 1.65443 7.15557C1.39518 7.42921 1.27327 7.80522 1.32262 8.17892C1.36528 8.50192 1.54682 8.73133 1.64865 8.85033C1.75391 8.97333 1.89445 9.11017 2.03143 9.24358L4.93792 12.0745L4.25212 16.0731C4.21974 16.2616 4.18653 16.455 4.17374 16.6165C4.16138 16.7727 4.14943 17.0651 4.30501 17.3515C4.48497 17.6828 4.80487 17.9153 5.17559 17.9839C5.49609 18.0433 5.7705 17.9416 5.91519 17.8816C6.06482 17.8195 6.2385 17.7281 6.4078 17.639L10 15.7499L13.5922 17.639C13.7616 17.7281 13.9352 17.8195 14.0848 17.8816C14.2296 17.9416 14.5039 18.0433 14.8244 17.9839C15.1952 17.9153 15.5151 17.6828 15.695 17.3515C15.8506 17.0651 15.8387 16.7727 15.8263 16.6165C15.8135 16.455 15.7803 16.2616 15.7479 16.0731L15.0621 12.0745L17.9687 9.2435C18.1056 9.11017 18.2462 8.97333 18.3514 8.85033C18.4533 8.73133 18.6348 8.50192 18.6774 8.17892C18.7268 7.80522 18.6048 7.42921 18.3456 7.15557C18.1215 6.91903 17.8399 6.83983 17.6877 6.8032C17.5302 6.76534 17.3361 6.73702 17.1469 6.70941L13.1286 6.12207L11.3322 2.48273C11.2476 2.31123 11.1607 2.13524 11.0762 1.99712C10.9943 1.86352 10.8322 1.61998 10.538 1.47972Z" fill="var(--fill-0, #FFCA00)"/>
</g>
</svg>
