<svg preserveAspectRatio="none" width="100%" height="100%" overflow="visible" style="display: block;" viewBox="0 0 1690.28 564.076" fill="none" xmlns="http://www.w3.org/2000/svg">
<path id="Vector 19" d="M25.7537 303.181C25.7537 303.181 175.754 554.681 359.754 477.681C543.754 400.681 603.254 289.68 580.254 184.18C557.254 78.6805 269.754 -88.3189 296.254 157.181C322.754 402.681 553.254 358.679 626.254 408.68C699.254 458.681 626.254 544.68 626.254 544.68M706.754 101.681C706.754 101.681 797.254 168.682 942.754 274.181C1088.25 379.68 842.754 458.681 785.254 368.181C727.754 277.681 1004.25 101.681 1004.25 101.681M1172.75 101.681C1181.17 290.387 1269.53 366.286 1687.25 408.68M68.2537 227.681C144.402 235.953 177.929 191.51 235.754 101.681" stroke="var(--stroke-0, #AD6EFF)" stroke-width="60"/>
</svg>
