<svg preserveAspectRatio="none" width="100%" height="100%" overflow="visible" style="display: block;" viewBox="0 0 278 177" fill="none" xmlns="http://www.w3.org/2000/svg">
<g id="Frame" clip-path="url(#clip0_17_395)">
<path id="Vector" d="M36 94.56C36 107.84 39.28 118.8 45.84 127.44C52.4 136.08 60.48 140.4 70.08 140.4C79.68 140.4 87.76 136.08 94.32 127.44C100.88 118.8 104.16 107.84 104.16 94.56V81.84C104.16 68.56 100.88 57.6 94.32 48.96C87.76 40.32 79.68 36 70.08 36C60.48 36 52.4 40.32 45.84 48.96C39.28 57.6 36 68.56 36 81.84V94.56ZM0 94.56V81.84C0 58.16 6.8 38.64 20.4 23.28C34 7.76 50.56 0 70.08 0C89.6 0 106.16 7.76 119.76 23.28C133.36 38.64 140.16 58.16 140.16 81.84V94.56C140.16 118.24 133.36 137.84 119.76 153.36C106.16 168.72 89.6 176.4 70.08 176.4C50.56 176.4 34 168.72 20.4 153.36C6.8 137.84 0 118.24 0 94.56ZM277.305 59.52C277.305 69.76 273.785 79.44 266.745 88.56C259.705 97.68 251.305 105.52 241.545 112.08L206.985 136.8H277.305V172.08H157.785V131.04L210.825 93.36C214.825 90.64 217.305 88.96 218.265 88.32C219.385 87.52 221.625 85.92 224.985 83.52C228.505 80.96 230.825 79.04 231.945 77.76C233.065 76.32 234.585 74.56 236.505 72.48C238.425 70.24 239.705 68.08 240.345 66C240.985 63.92 241.305 61.76 241.305 59.52C241.305 53.12 238.985 47.84 234.345 43.68C229.705 39.52 224.025 37.44 217.305 37.44C204.185 37.44 195.465 44.88 191.145 59.76L155.625 49.68C160.105 35.44 167.465 23.84 177.705 14.88C188.105 5.91999 201.305 1.43999 217.305 1.43999C234.105 1.43999 248.265 6.95999 259.785 18C271.465 28.88 277.305 42.72 277.305 59.52Z" fill="var(--fill-0, #FFCA00)"/>
</g>
<defs>
<clipPath id="clip0_17_395">
<rect width="278" height="177" fill="white"/>
</clipPath>
</defs>
</svg>
