<svg preserveAspectRatio="none" width="100%" height="100%" overflow="visible" style="display: block;" viewBox="0 0 18.6667 18.6667" fill="none" xmlns="http://www.w3.org/2000/svg">
<path id="Vector" d="M10.5 1.16667C10.5 0.52234 9.97768 0 9.33333 0C8.68898 0 8.16667 0.52234 8.16667 1.16667V8.16667H1.16667C0.52234 8.16667 0 8.68898 0 9.33333C0 9.97768 0.52234 10.5 1.16667 10.5H8.16667V17.5C8.16667 18.1443 8.68898 18.6667 9.33333 18.6667C9.97768 18.6667 10.5 18.1443 10.5 17.5V10.5H17.5C18.1443 10.5 18.6667 9.97768 18.6667 9.33333C18.6667 8.68898 18.1443 8.16667 17.5 8.16667H10.5V1.16667Z" fill="var(--fill-0, black)"/>
</svg>
